<mxfile host="Electron" modified="2023-05-27T14:33:56.163Z" agent="Mozilla/5.0 (Macintosh; Intel Mac OS X 10_15_7) AppleWebKit/537.36 (KHTML, like Gecko) draw.io/21.2.1 Chrome/112.0.5615.87 Electron/24.1.2 Safari/537.36" etag="HakVm8XuZXwAY_O-KzE2" version="21.2.1" type="device">
  <diagram name="Page-1" id="H1nZVYqxkzLZFgEqRADx">
    <mxGraphModel dx="722" dy="2140" grid="1" gridSize="10" guides="1" tooltips="1" connect="1" arrows="1" fold="1" page="1" pageScale="1" pageWidth="850" pageHeight="1100" math="0" shadow="0">
      <root>
        <mxCell id="0" />
        <mxCell id="1" parent="0" />
        <mxCell id="AsBp8XiL8Dx4Y6rQVwFH-2251" value="R, W: 109, H: 96, ORDER: 13, GC: {39, 21, 24, 18, 3, 25, 20, 7, 6, 19, 13, 57, 52} " style="text;html=1;strokeColor=none;fillColor=none;align=center;verticalAlign=middle;whiteSpace=wrap;rounded=0;" parent="1" vertex="1">
          <mxGeometry x="1190" width="1090" height="30" as="geometry" />
        </mxCell>
        <mxCell id="AsBp8XiL8Dx4Y6rQVwFH-10269" value="R, W: 109, H: 75, ORDER: 19, GC: {36, 33, 21, 19, 2, 9, 8, 1, 7, 12, 11, 4, 6, 15, 13, 3, 42, 28, 39} " style="text;html=1;strokeColor=none;fillColor=none;align=center;verticalAlign=middle;whiteSpace=wrap;rounded=0;flipV=1;" parent="1" vertex="1">
          <mxGeometry x="1190" y="1090" width="1090" height="30" as="geometry" />
        </mxCell>
        <mxCell id="x5t4tWdMA0QUXDTYkKIZ-1" value="" style="group;flipV=1;" vertex="1" connectable="0" parent="1">
          <mxGeometry x="1190" y="50" width="1090" height="960" as="geometry" />
        </mxCell>
        <mxCell id="761dnnyQ54j-Cl0NHfQN-2252" value="39" style="rounded=0;whiteSpace=wrap;html=1;" parent="x5t4tWdMA0QUXDTYkKIZ-1" vertex="1">
          <mxGeometry y="570" width="390" height="390" as="geometry" />
        </mxCell>
        <mxCell id="761dnnyQ54j-Cl0NHfQN-2253" value="21" style="rounded=0;whiteSpace=wrap;html=1;" parent="x5t4tWdMA0QUXDTYkKIZ-1" vertex="1">
          <mxGeometry x="390" y="750" width="210" height="210" as="geometry" />
        </mxCell>
        <mxCell id="761dnnyQ54j-Cl0NHfQN-2254" value="24" style="rounded=0;whiteSpace=wrap;html=1;" parent="x5t4tWdMA0QUXDTYkKIZ-1" vertex="1">
          <mxGeometry x="600" y="720" width="240" height="240" as="geometry" />
        </mxCell>
        <mxCell id="761dnnyQ54j-Cl0NHfQN-2255" value="18" style="rounded=0;whiteSpace=wrap;html=1;" parent="x5t4tWdMA0QUXDTYkKIZ-1" vertex="1">
          <mxGeometry x="390" y="570" width="180" height="180" as="geometry" />
        </mxCell>
        <mxCell id="761dnnyQ54j-Cl0NHfQN-2256" value="3" style="rounded=0;whiteSpace=wrap;html=1;" parent="x5t4tWdMA0QUXDTYkKIZ-1" vertex="1">
          <mxGeometry x="570" y="720" width="30" height="30" as="geometry" />
        </mxCell>
        <mxCell id="761dnnyQ54j-Cl0NHfQN-2257" value="25" style="rounded=0;whiteSpace=wrap;html=1;" parent="x5t4tWdMA0QUXDTYkKIZ-1" vertex="1">
          <mxGeometry x="840" y="710" width="250" height="250" as="geometry" />
        </mxCell>
        <mxCell id="761dnnyQ54j-Cl0NHfQN-2258" value="20" style="rounded=0;whiteSpace=wrap;html=1;" parent="x5t4tWdMA0QUXDTYkKIZ-1" vertex="1">
          <mxGeometry x="570" y="520" width="200" height="200" as="geometry" />
        </mxCell>
        <mxCell id="761dnnyQ54j-Cl0NHfQN-2259" value="7" style="rounded=0;whiteSpace=wrap;html=1;" parent="x5t4tWdMA0QUXDTYkKIZ-1" vertex="1">
          <mxGeometry x="770" y="650" width="70" height="70" as="geometry" />
        </mxCell>
        <mxCell id="761dnnyQ54j-Cl0NHfQN-2260" value="6" style="rounded=0;whiteSpace=wrap;html=1;" parent="x5t4tWdMA0QUXDTYkKIZ-1" vertex="1">
          <mxGeometry x="840" y="650" width="60" height="60" as="geometry" />
        </mxCell>
        <mxCell id="761dnnyQ54j-Cl0NHfQN-2261" value="19" style="rounded=0;whiteSpace=wrap;html=1;" parent="x5t4tWdMA0QUXDTYkKIZ-1" vertex="1">
          <mxGeometry x="900" y="520" width="190" height="190" as="geometry" />
        </mxCell>
        <mxCell id="761dnnyQ54j-Cl0NHfQN-2262" value="13" style="rounded=0;whiteSpace=wrap;html=1;" parent="x5t4tWdMA0QUXDTYkKIZ-1" vertex="1">
          <mxGeometry x="770" y="520" width="130" height="130" as="geometry" />
        </mxCell>
        <mxCell id="761dnnyQ54j-Cl0NHfQN-2263" value="57" style="rounded=0;whiteSpace=wrap;html=1;" parent="x5t4tWdMA0QUXDTYkKIZ-1" vertex="1">
          <mxGeometry width="570" height="570" as="geometry" />
        </mxCell>
        <mxCell id="761dnnyQ54j-Cl0NHfQN-2264" value="52" style="rounded=0;whiteSpace=wrap;html=1;" parent="x5t4tWdMA0QUXDTYkKIZ-1" vertex="1">
          <mxGeometry x="570" width="520" height="520" as="geometry" />
        </mxCell>
        <mxCell id="x5t4tWdMA0QUXDTYkKIZ-2" value="" style="group;flipV=1;" vertex="1" connectable="0" parent="1">
          <mxGeometry x="1190" y="1140" width="1090" height="750" as="geometry" />
        </mxCell>
        <mxCell id="761dnnyQ54j-Cl0NHfQN-10270" value="36" style="rounded=0;whiteSpace=wrap;html=1;" parent="x5t4tWdMA0QUXDTYkKIZ-2" vertex="1">
          <mxGeometry y="390" width="360" height="360" as="geometry" />
        </mxCell>
        <mxCell id="761dnnyQ54j-Cl0NHfQN-10271" value="33" style="rounded=0;whiteSpace=wrap;html=1;" parent="x5t4tWdMA0QUXDTYkKIZ-2" vertex="1">
          <mxGeometry x="360" y="420" width="330" height="330" as="geometry" />
        </mxCell>
        <mxCell id="761dnnyQ54j-Cl0NHfQN-10272" value="21" style="rounded=0;whiteSpace=wrap;html=1;" parent="x5t4tWdMA0QUXDTYkKIZ-2" vertex="1">
          <mxGeometry x="690" y="540" width="210" height="210" as="geometry" />
        </mxCell>
        <mxCell id="761dnnyQ54j-Cl0NHfQN-10273" value="19" style="rounded=0;whiteSpace=wrap;html=1;" parent="x5t4tWdMA0QUXDTYkKIZ-2" vertex="1">
          <mxGeometry x="900" y="560" width="190" height="190" as="geometry" />
        </mxCell>
        <mxCell id="761dnnyQ54j-Cl0NHfQN-10274" value="2" style="rounded=0;whiteSpace=wrap;html=1;" parent="x5t4tWdMA0QUXDTYkKIZ-2" vertex="1">
          <mxGeometry x="900" y="540" width="20" height="20" as="geometry" />
        </mxCell>
        <mxCell id="761dnnyQ54j-Cl0NHfQN-10275" value="9" style="rounded=0;whiteSpace=wrap;html=1;" parent="x5t4tWdMA0QUXDTYkKIZ-2" vertex="1">
          <mxGeometry x="920" y="470" width="90" height="90" as="geometry" />
        </mxCell>
        <mxCell id="761dnnyQ54j-Cl0NHfQN-10276" value="8" style="rounded=0;whiteSpace=wrap;html=1;" parent="x5t4tWdMA0QUXDTYkKIZ-2" vertex="1">
          <mxGeometry x="1010" y="480" width="80" height="80" as="geometry" />
        </mxCell>
        <mxCell id="761dnnyQ54j-Cl0NHfQN-10277" value="1" style="rounded=0;whiteSpace=wrap;html=1;" parent="x5t4tWdMA0QUXDTYkKIZ-2" vertex="1">
          <mxGeometry x="1010" y="470" width="10" height="10" as="geometry" />
        </mxCell>
        <mxCell id="761dnnyQ54j-Cl0NHfQN-10278" value="7" style="rounded=0;whiteSpace=wrap;html=1;" parent="x5t4tWdMA0QUXDTYkKIZ-2" vertex="1">
          <mxGeometry x="1020" y="410" width="70" height="70" as="geometry" />
        </mxCell>
        <mxCell id="761dnnyQ54j-Cl0NHfQN-10279" value="12" style="rounded=0;whiteSpace=wrap;html=1;" parent="x5t4tWdMA0QUXDTYkKIZ-2" vertex="1">
          <mxGeometry x="690" y="420" width="120" height="120" as="geometry" />
        </mxCell>
        <mxCell id="761dnnyQ54j-Cl0NHfQN-10280" value="11" style="rounded=0;whiteSpace=wrap;html=1;" parent="x5t4tWdMA0QUXDTYkKIZ-2" vertex="1">
          <mxGeometry x="810" y="430" width="110" height="110" as="geometry" />
        </mxCell>
        <mxCell id="761dnnyQ54j-Cl0NHfQN-10281" value="4" style="rounded=0;whiteSpace=wrap;html=1;" parent="x5t4tWdMA0QUXDTYkKIZ-2" vertex="1">
          <mxGeometry x="920" y="430" width="40" height="40" as="geometry" />
        </mxCell>
        <mxCell id="761dnnyQ54j-Cl0NHfQN-10282" value="6" style="rounded=0;whiteSpace=wrap;html=1;" parent="x5t4tWdMA0QUXDTYkKIZ-2" vertex="1">
          <mxGeometry x="960" y="410" width="60" height="60" as="geometry" />
        </mxCell>
        <mxCell id="761dnnyQ54j-Cl0NHfQN-10283" value="15" style="rounded=0;whiteSpace=wrap;html=1;" parent="x5t4tWdMA0QUXDTYkKIZ-2" vertex="1">
          <mxGeometry x="810" y="280" width="150" height="150" as="geometry" />
        </mxCell>
        <mxCell id="761dnnyQ54j-Cl0NHfQN-10284" value="13" style="rounded=0;whiteSpace=wrap;html=1;" parent="x5t4tWdMA0QUXDTYkKIZ-2" vertex="1">
          <mxGeometry x="960" y="280" width="130" height="130" as="geometry" />
        </mxCell>
        <mxCell id="761dnnyQ54j-Cl0NHfQN-10285" value="3" style="rounded=0;whiteSpace=wrap;html=1;" parent="x5t4tWdMA0QUXDTYkKIZ-2" vertex="1">
          <mxGeometry x="360" y="390" width="30" height="30" as="geometry" />
        </mxCell>
        <mxCell id="761dnnyQ54j-Cl0NHfQN-10286" value="42" style="rounded=0;whiteSpace=wrap;html=1;" parent="x5t4tWdMA0QUXDTYkKIZ-2" vertex="1">
          <mxGeometry x="390" width="420" height="420" as="geometry" />
        </mxCell>
        <mxCell id="761dnnyQ54j-Cl0NHfQN-10287" value="28" style="rounded=0;whiteSpace=wrap;html=1;" parent="x5t4tWdMA0QUXDTYkKIZ-2" vertex="1">
          <mxGeometry x="810" width="280" height="280" as="geometry" />
        </mxCell>
        <mxCell id="761dnnyQ54j-Cl0NHfQN-10288" value="39" style="rounded=0;whiteSpace=wrap;html=1;" parent="x5t4tWdMA0QUXDTYkKIZ-2" vertex="1">
          <mxGeometry width="390" height="390" as="geometry" />
        </mxCell>
      </root>
    </mxGraphModel>
  </diagram>
</mxfile>
